<svg version="1.1" id="Layer_1" xmlns="http://www.w3.org/2000/svg" xmlns:xlink="http://www.w3.org/1999/xlink" x="0px" y="0px"
	 width="100%" viewBox="0 0 859 879" enable-background="new 0 0 859 879" xml:space="preserve">
<path fill="#FFFFFF" opacity="1.000000" stroke="none" 
	d="
M500.000000,880.000000 
	C333.333344,880.000000 167.166672,880.000000 1.000000,880.000000 
	C1.000000,587.000000 1.000000,294.000000 1.000000,1.000000 
	C287.333344,1.000000 573.666687,1.000000 860.000000,1.000000 
	C860.000000,294.000000 860.000000,587.000000 860.000000,880.000000 
	C740.166687,880.000000 620.333313,880.000000 500.000000,880.000000 
M29.999443,594.500000 
	C29.999443,608.583923 29.999443,622.667847 29.999443,636.684998 
	C41.042679,643.071472 52.398781,649.648560 63.764015,656.209839 
	C130.675018,694.839050 197.602676,733.439575 264.450684,772.177490 
	C267.286774,773.820984 268.762115,773.829346 271.109772,771.473877 
	C317.347504,725.083374 363.701202,678.808472 409.896454,632.375854 
	C411.625031,630.638428 412.852112,627.556885 412.869690,625.091431 
	C413.073975,596.426941 412.684296,567.754822 413.194824,539.097961 
	C413.346100,530.607788 412.382172,524.120361 403.182953,521.547974 
	C402.114838,521.249268 401.238129,520.307617 400.234833,519.729675 
	C362.682709,498.100525 325.102692,476.519684 287.575806,454.846893 
	C234.631638,424.270325 181.723083,393.632080 128.808823,363.003784 
	C122.737381,359.489471 116.726768,355.870056 109.982224,351.882111 
	C179.377884,306.756958 247.814896,262.255219 316.999664,217.267212 
	C316.999664,245.726151 317.071625,272.885651 316.904968,300.043701 
	C316.884979,303.295074 317.852539,305.225128 320.549530,306.775146 
	C344.123169,320.323578 367.664459,333.928284 391.216583,347.514160 
	C397.899200,351.368988 404.585876,355.216705 412.287567,359.653503 
	C412.287567,252.823624 412.287567,147.134811 412.287567,41.071171 
	C410.900146,41.887325 409.482574,42.641132 408.146667,43.519230 
	C391.476562,54.476524 374.849274,65.499123 358.149902,76.411568 
	C332.410919,93.231110 306.628632,109.984383 280.857666,126.754944 
	C227.911407,161.209976 174.964172,195.663498 122.010033,230.106430 
	C92.465240,249.323212 62.889000,268.491730 33.383995,287.769379 
	C30.967434,289.348267 27.947920,290.549072 27.955393,294.482239 
	C28.028547,332.981140 28.034876,371.480316 27.944370,409.979156 
	C27.935419,413.787384 29.432274,415.991852 32.679214,417.858124 
	C74.759529,442.044678 116.772110,466.349060 158.812576,490.605011 
	C203.015213,516.108521 247.234177,541.583618 291.435120,567.090088 
	C301.623596,572.969421 311.767731,578.925537 322.191101,584.997070 
	C321.324036,586.019226 320.848022,586.667969 320.285797,587.230530 
	C298.726349,608.803162 277.118683,630.327942 255.648560,651.989014 
	C253.225250,654.433899 251.446167,654.202637 248.760986,652.647034 
	C210.648956,630.567200 172.364838,608.781982 134.368423,586.505676 
	C101.391762,567.172302 68.728226,547.304871 35.918430,527.686523 
	C34.188637,526.652283 32.385193,525.741150 29.999443,524.435181 
	C29.999443,548.184021 29.999443,570.841980 29.999443,594.500000 
M799.323730,391.842529 
	C807.122375,386.757812 814.864014,381.582123 822.749146,376.635284 
	C825.717651,374.772919 827.088562,372.621399 827.073425,368.964874 
	C826.944946,337.799591 826.963867,306.633484 827.059326,275.467987 
	C827.068054,272.624268 826.217224,270.928802 823.727356,269.499969 
	C795.473389,253.286362 767.274231,236.977173 739.060852,220.692886 
	C685.800720,189.952087 632.487305,159.303116 579.296509,128.442825 
	C529.997192,99.840248 480.830139,71.009529 431.593964,42.297939 
	C430.658875,41.752655 429.588837,41.438812 428.370178,40.928349 
	C428.370178,314.651154 428.370178,587.947693 428.370178,861.615417 
	C429.531738,860.999268 430.285492,860.671082 430.964966,860.228760 
	C455.481171,844.272400 479.883484,828.136597 504.589294,812.479736 
	C509.634186,809.282532 511.140320,805.894653 511.135559,800.090149 
	C510.972656,602.262512 511.000031,404.434723 511.000092,206.606934 
	C511.000092,204.522339 511.000122,202.437729 511.000122,199.389847 
	C583.590393,241.304749 655.289490,282.705078 726.927063,324.069885 
	C668.232056,366.448761 605.063049,400.720154 541.192078,435.912140 
	C637.754150,491.475525 733.324890,546.468506 829.877380,602.026367 
	C829.877380,593.404480 829.868958,586.272095 829.878845,579.139709 
	C829.916016,552.474426 830.022156,525.808899 829.917908,499.144226 
	C829.905334,495.918976 830.834900,492.284393 826.715088,489.943481 
	C802.155701,475.988434 777.709534,461.833862 753.243774,447.714386 
	C746.449341,443.793274 739.717529,439.763763 732.307434,435.401611 
	C754.984314,420.646240 776.841431,406.424255 799.323730,391.842529 
z"/>
<path fill="#A9927D" opacity="1.000000" stroke="none" 
	d="
M29.999443,594.000000 
	C29.999443,570.841980 29.999443,548.184021 29.999443,524.435181 
	C32.385193,525.741150 34.188637,526.652283 35.918430,527.686523 
	C68.728226,547.304871 101.391762,567.172302 134.368423,586.505676 
	C172.364838,608.781982 210.648956,630.567200 248.760986,652.647034 
	C251.446167,654.202637 253.225250,654.433899 255.648560,651.989014 
	C277.118683,630.327942 298.726349,608.803162 320.285797,587.230530 
	C320.848022,586.667969 321.324036,586.019226 322.191101,584.997070 
	C311.767731,578.925537 301.623596,572.969421 291.435120,567.090088 
	C247.234177,541.583618 203.015213,516.108521 158.812576,490.605011 
	C116.772110,466.349060 74.759529,442.044678 32.679214,417.858124 
	C29.432274,415.991852 27.935419,413.787384 27.944370,409.979156 
	C28.034876,371.480316 28.028547,332.981140 27.955393,294.482239 
	C27.947920,290.549072 30.967434,289.348267 33.383995,287.769379 
	C62.889000,268.491730 92.465240,249.323212 122.010033,230.106430 
	C174.964172,195.663498 227.911407,161.209976 280.857666,126.754944 
	C306.628632,109.984383 332.410919,93.231110 358.149902,76.411568 
	C374.849274,65.499123 391.476562,54.476524 408.146667,43.519230 
	C409.482574,42.641132 410.900146,41.887325 412.287567,41.071171 
	C412.287567,147.134811 412.287567,252.823624 412.287567,359.653503 
	C404.585876,355.216705 397.899200,351.368988 391.216583,347.514160 
	C367.664459,333.928284 344.123169,320.323578 320.549530,306.775146 
	C317.852539,305.225128 316.884979,303.295074 316.904968,300.043701 
	C317.071625,272.885651 316.999664,245.726151 316.999664,217.267212 
	C247.814896,262.255219 179.377884,306.756958 109.982224,351.882111 
	C116.726768,355.870056 122.737381,359.489471 128.808823,363.003784 
	C181.723083,393.632080 234.631638,424.270325 287.575806,454.846893 
	C325.102692,476.519684 362.682709,498.100525 400.234833,519.729675 
	C401.238129,520.307617 402.114838,521.249268 403.182953,521.547974 
	C412.382172,524.120361 413.346100,530.607788 413.194824,539.097961 
	C412.684296,567.754822 413.073975,596.426941 412.869690,625.091431 
	C412.852112,627.556885 411.625031,630.638428 409.896454,632.375854 
	C363.701202,678.808472 317.347504,725.083374 271.109772,771.473877 
	C268.762115,773.829346 267.286774,773.820984 264.450684,772.177490 
	C197.602676,733.439575 130.675018,694.839050 63.764015,656.209839 
	C52.398781,649.648560 41.042679,643.071472 29.999443,636.684998 
	C29.999443,622.667847 29.999443,608.583923 29.999443,594.000000 
z"/>
<path fill="#A9927D" opacity="1.000000" stroke="none" 
	d="
M799.011108,392.022400 
	C776.841431,406.424255 754.984314,420.646240 732.307434,435.401611 
	C739.717529,439.763763 746.449341,443.793274 753.243774,447.714386 
	C777.709534,461.833862 802.155701,475.988434 826.715088,489.943481 
	C830.834900,492.284393 829.905334,495.918976 829.917908,499.144226 
	C830.022156,525.808899 829.916016,552.474426 829.878845,579.139709 
	C829.868958,586.272095 829.877380,593.404480 829.877380,602.026367 
	C733.324890,546.468506 637.754150,491.475525 541.192078,435.912140 
	C605.063049,400.720154 668.232056,366.448761 726.927063,324.069885 
	C655.289490,282.705078 583.590393,241.304749 511.000122,199.389847 
	C511.000122,202.437729 511.000092,204.522339 511.000092,206.606934 
	C511.000031,404.434723 510.972656,602.262512 511.135559,800.090149 
	C511.140320,805.894653 509.634186,809.282532 504.589294,812.479736 
	C479.883484,828.136597 455.481171,844.272400 430.964966,860.228760 
	C430.285492,860.671082 429.531738,860.999268 428.370178,861.615417 
	C428.370178,587.947693 428.370178,314.651154 428.370178,40.928349 
	C429.588837,41.438812 430.658875,41.752655 431.593964,42.297939 
	C480.830139,71.009529 529.997192,99.840248 579.296509,128.442825 
	C632.487305,159.303116 685.800720,189.952087 739.060852,220.692886 
	C767.274231,236.977173 795.473389,253.286362 823.727356,269.499969 
	C826.217224,270.928802 827.068054,272.624268 827.059326,275.467987 
	C826.963867,306.633484 826.944946,337.799591 827.073425,368.964874 
	C827.088562,372.621399 825.717651,374.772919 822.749146,376.635284 
	C814.864014,381.582123 807.122375,386.757812 799.011108,392.022400 
z"/>
</svg>